<svg width="88" height="139" viewBox="0 0 88 139" fill="none" xmlns="http://www.w3.org/2000/svg">
<path d="M81.8125 0.830444H6.1875C4.59206 0.830444 3.06196 2.0082 1.93381 4.10463C0.805663 6.20106 0.171875 9.04442 0.171875 12.0092V126.991C0.171875 129.956 0.805663 132.799 1.93381 134.895C3.06196 136.992 4.59206 138.17 6.1875 138.17H81.8125C83.4079 138.17 84.938 136.992 86.0662 134.895C87.1943 132.799 87.8281 129.956 87.8281 126.991V12.0092C87.8281 9.04442 87.1943 6.20106 86.0662 4.10463C84.938 2.0082 83.4079 0.830444 81.8125 0.830444ZM82.6719 126.991C82.6719 127.414 82.5813 127.821 82.4202 128.12C82.259 128.42 82.0404 128.588 81.8125 128.588H6.1875C5.95958 128.588 5.74099 128.42 5.57983 128.12C5.41867 127.821 5.32812 127.414 5.32812 126.991V12.0092C5.32812 11.5857 5.41867 11.1795 5.57983 10.88C5.74099 10.5805 5.95958 10.4122 6.1875 10.4122H81.8125C82.0404 10.4122 82.259 10.5805 82.4202 10.88C82.5813 11.1795 82.6719 11.5857 82.6719 12.0092V126.991Z" fill="white"/>
</svg>
