<svg width="60" height="60" viewBox="0 0 60 60" fill="none" xmlns="http://www.w3.org/2000/svg">
<path d="M55 0H5C3.67392 0 2.40215 0.526784 1.46447 1.46447C0.526784 2.40215 0 3.67392 0 5V55C0 56.3261 0.526784 57.5979 1.46447 58.5355C2.40215 59.4732 3.67392 60 5 60H55C56.3261 60 57.5979 59.4732 58.5355 58.5355C59.4732 57.5979 60 56.3261 60 55V5C60 3.67392 59.4732 2.40215 58.5355 1.46447C57.5979 0.526784 56.3261 0 55 0ZM55 55H5V5H55V55ZM45 30C45 30.663 44.7366 31.2989 44.2678 31.7678C43.7989 32.2366 43.163 32.5 42.5 32.5H17.5C16.837 32.5 16.2011 32.2366 15.7322 31.7678C15.2634 31.2989 15 30.663 15 30C15 29.337 15.2634 28.7011 15.7322 28.2322C16.2011 27.7634 16.837 27.5 17.5 27.5H42.5C43.163 27.5 43.7989 27.7634 44.2678 28.2322C44.7366 28.7011 45 29.337 45 30Z" fill="white"/>
</svg>
